<mxfile host="65bd71144e">
    <diagram id="N-6vM1TaZi9DFC5uVYc-" name="ページ1">
        <mxGraphModel dx="1089" dy="2765" grid="0" gridSize="10" guides="1" tooltips="1" connect="1" arrows="1" fold="1" page="1" pageScale="1" pageWidth="827" pageHeight="1169" background="#ffffff" math="0" shadow="0">
            <root>
                <mxCell id="0"/>
                <mxCell id="1" parent="0"/>
                <mxCell id="6" value="&lt;font color=&quot;#050505&quot;&gt;Visitor&lt;/font&gt;" style="sketch=0;outlineConnect=0;fontColor=#232F3E;gradientColor=none;strokeColor=#222d3a;fillColor=#ffffff;dashed=0;verticalLabelPosition=bottom;verticalAlign=top;align=center;html=1;fontSize=12;fontStyle=0;aspect=fixed;shape=mxgraph.aws4.resourceIcon;resIcon=mxgraph.aws4.client;" parent="1" vertex="1">
                    <mxGeometry x="330" y="-320" width="60" height="60" as="geometry"/>
                </mxCell>
                <mxCell id="10" value="Public subnet" style="points=[[0,0],[0.25,0],[0.5,0],[0.75,0],[1,0],[1,0.25],[1,0.5],[1,0.75],[1,1],[0.75,1],[0.5,1],[0.25,1],[0,1],[0,0.75],[0,0.5],[0,0.25]];outlineConnect=0;gradientColor=none;html=1;whiteSpace=wrap;fontSize=12;fontStyle=0;container=1;pointerEvents=0;collapsible=0;recursiveResize=0;shape=mxgraph.aws4.group;grIcon=mxgraph.aws4.group_security_group;grStroke=0;strokeColor=#248814;fillColor=#E9F3E6;verticalAlign=top;align=left;spacingLeft=30;fontColor=#248814;dashed=0;" parent="1" vertex="1">
                    <mxGeometry x="40" y="160" width="160" height="160" as="geometry"/>
                </mxCell>
                <mxCell id="19" value="Security group" style="fillColor=none;strokeColor=#DD3522;verticalAlign=top;fontStyle=0;fontColor=#DD3522;" parent="10" vertex="1">
                    <mxGeometry x="24.75" y="30" width="110.5" height="110" as="geometry"/>
                </mxCell>
                <mxCell id="18" value="ALB" style="sketch=0;outlineConnect=0;fontColor=#232F3E;gradientColor=none;fillColor=#4D27AA;strokeColor=none;dashed=0;verticalLabelPosition=bottom;verticalAlign=top;align=center;html=1;fontSize=12;fontStyle=0;aspect=fixed;pointerEvents=1;shape=mxgraph.aws4.application_load_balancer;" parent="10" vertex="1">
                    <mxGeometry x="55.5" y="70" width="49" height="49" as="geometry"/>
                </mxCell>
                <mxCell id="95" value="" style="group" parent="1" vertex="1" connectable="0">
                    <mxGeometry x="280" y="160" width="400.5128205128205" height="240" as="geometry"/>
                </mxCell>
                <mxCell id="11" value="Private subnet" style="points=[[0,0],[0.25,0],[0.5,0],[0.75,0],[1,0],[1,0.25],[1,0.5],[1,0.75],[1,1],[0.75,1],[0.5,1],[0.25,1],[0,1],[0,0.75],[0,0.5],[0,0.25]];outlineConnect=0;gradientColor=none;html=1;whiteSpace=wrap;fontSize=12;fontStyle=0;container=1;pointerEvents=0;collapsible=0;recursiveResize=0;shape=mxgraph.aws4.group;grIcon=mxgraph.aws4.group_security_group;grStroke=0;strokeColor=#147EBA;fillColor=#E6F2F8;verticalAlign=top;align=left;spacingLeft=30;fontColor=#147EBA;dashed=0;" parent="95" vertex="1">
                    <mxGeometry width="399.99999999999994" height="240" as="geometry"/>
                </mxCell>
                <mxCell id="42" value="" style="sketch=0;outlineConnect=0;fontColor=#232F3E;gradientColor=none;fillColor=#4D27AA;strokeColor=none;dashed=0;verticalLabelPosition=bottom;verticalAlign=top;align=center;html=1;fontSize=12;fontStyle=0;aspect=fixed;pointerEvents=1;shape=mxgraph.aws4.route_table;" parent="95" vertex="1">
                    <mxGeometry y="211.2" width="27.1296" height="26.438399999999998" as="geometry"/>
                </mxCell>
                <mxCell id="25" value="" style="fillColor=none;strokeColor=#5A6C86;dashed=1;verticalAlign=top;fontStyle=0;fontColor=#5A6C86;" parent="95" vertex="1">
                    <mxGeometry x="20.512820512820497" y="38.400000000000006" width="369.23076923076917" height="172.79999999999998" as="geometry"/>
                </mxCell>
                <mxCell id="45" value="" style="edgeStyle=none;html=1;" parent="95" source="28" edge="1">
                    <mxGeometry relative="1" as="geometry">
                        <mxPoint x="246.15384615384613" y="95.98684285714276" as="targetPoint"/>
                    </mxGeometry>
                </mxCell>
                <mxCell id="125" value="" style="edgeStyle=none;html=1;fontColor=#f1f2f3;" parent="95" source="43" target="55" edge="1">
                    <mxGeometry relative="1" as="geometry"/>
                </mxCell>
                <mxCell id="43" value="ECS Cluster" style="sketch=0;outlineConnect=0;fontColor=#232F3E;gradientColor=none;fillColor=#4D27AA;strokeColor=none;dashed=0;verticalLabelPosition=bottom;verticalAlign=top;align=center;html=1;fontSize=12;fontStyle=0;aspect=fixed;pointerEvents=1;shape=mxgraph.aws4.cluster;" parent="95" vertex="1">
                    <mxGeometry x="20.512820512820497" y="38.400000000000006" width="26.879999999999995" height="26.879999999999995" as="geometry"/>
                </mxCell>
                <mxCell id="55" value="ECS Service(VisitorWebSocketService)" style="fillColor=none;strokeColor=#5A6C86;dashed=1;verticalAlign=top;fontStyle=0;fontColor=#5A6C86;" parent="95" vertex="1">
                    <mxGeometry x="71.79487179487177" y="62.396800000000006" width="297.4358974358974" height="124.79999999999998" as="geometry"/>
                </mxCell>
                <mxCell id="275" value="Security group" style="fillColor=none;strokeColor=#DD3522;verticalAlign=top;fontStyle=0;fontColor=#DD3522;" parent="95" vertex="1">
                    <mxGeometry x="2.7828205128204964" y="30.000000000000007" width="397.73" height="188.4" as="geometry"/>
                </mxCell>
                <mxCell id="50" value="" style="group" parent="95" vertex="1" connectable="0">
                    <mxGeometry x="235.89743589743586" y="91.1968" width="117.94871794871794" height="96.00319999999998" as="geometry"/>
                </mxCell>
                <mxCell id="46" value="" style="fillColor=none;strokeColor=#5A6C86;dashed=1;verticalAlign=top;fontStyle=0;fontColor=#5A6C86;" parent="50" vertex="1">
                    <mxGeometry y="0.0032000000000039102" width="117.94871794871794" height="79.9968" as="geometry"/>
                </mxCell>
                <mxCell id="47" value="Fargate" style="sketch=0;points=[[0,0,0],[0.25,0,0],[0.5,0,0],[0.75,0,0],[1,0,0],[0,1,0],[0.25,1,0],[0.5,1,0],[0.75,1,0],[1,1,0],[0,0.25,0],[0,0.5,0],[0,0.75,0],[1,0.25,0],[1,0.5,0],[1,0.75,0]];outlineConnect=0;fontColor=#232F3E;gradientColor=#F78E04;gradientDirection=north;fillColor=#D05C17;strokeColor=#ffffff;dashed=0;verticalLabelPosition=bottom;verticalAlign=top;align=center;html=1;fontSize=12;fontStyle=0;aspect=fixed;shape=mxgraph.aws4.resourceIcon;resIcon=mxgraph.aws4.fargate;" parent="50" vertex="1">
                    <mxGeometry width="25.599999999999994" height="25.599999999999994" as="geometry"/>
                </mxCell>
                <mxCell id="48" value="ECS Task" style="sketch=0;outlineConnect=0;fontColor=#232F3E;gradientColor=none;fillColor=#D45B07;strokeColor=none;dashed=0;verticalLabelPosition=bottom;verticalAlign=top;align=center;html=1;fontSize=12;fontStyle=0;aspect=fixed;pointerEvents=1;shape=mxgraph.aws4.ecs_task;" parent="50" vertex="1">
                    <mxGeometry x="46.153846153846146" y="22.486400000000003" width="21.599999999999998" height="28.022399999999998" as="geometry"/>
                </mxCell>
                <mxCell id="58" value="" style="group" parent="95" vertex="1" connectable="0">
                    <mxGeometry x="71.79487179487177" y="62.396800000000006" width="297.4358974358974" height="124.80319999999998" as="geometry"/>
                </mxCell>
                <mxCell id="24" value="" style="sketch=0;points=[[0,0,0],[0.25,0,0],[0.5,0,0],[0.75,0,0],[1,0,0],[0,1,0],[0.25,1,0],[0.5,1,0],[0.75,1,0],[1,1,0],[0,0.25,0],[0,0.5,0],[0,0.75,0],[1,0.25,0],[1,0.5,0],[1,0.75,0]];outlineConnect=0;fontColor=#232F3E;gradientColor=#F78E04;gradientDirection=north;fillColor=#D05C17;strokeColor=#ffffff;dashed=0;verticalLabelPosition=bottom;verticalAlign=top;align=center;html=1;fontSize=12;fontStyle=0;aspect=fixed;shape=mxgraph.aws4.resourceIcon;resIcon=mxgraph.aws4.ecs;" parent="58" vertex="1">
                    <mxGeometry y="0.0031999999999970893" width="19.199999999999996" height="19.199999999999996" as="geometry"/>
                </mxCell>
                <mxCell id="32" value="" style="fillColor=none;strokeColor=#5A6C86;dashed=1;verticalAlign=top;fontStyle=0;fontColor=#5A6C86;" parent="95" vertex="1">
                    <mxGeometry x="87.17948717948715" y="91.2" width="117.94871794871794" height="79.9968" as="geometry"/>
                </mxCell>
                <mxCell id="28" value="Fargate" style="sketch=0;points=[[0,0,0],[0.25,0,0],[0.5,0,0],[0.75,0,0],[1,0,0],[0,1,0],[0.25,1,0],[0.5,1,0],[0.75,1,0],[1,1,0],[0,0.25,0],[0,0.5,0],[0,0.75,0],[1,0.25,0],[1,0.5,0],[1,0.75,0]];outlineConnect=0;fontColor=#232F3E;gradientColor=#F78E04;gradientDirection=north;fillColor=#D05C17;strokeColor=#ffffff;dashed=0;verticalLabelPosition=bottom;verticalAlign=top;align=center;html=1;fontSize=12;fontStyle=0;aspect=fixed;shape=mxgraph.aws4.resourceIcon;resIcon=mxgraph.aws4.fargate;" parent="95" vertex="1">
                    <mxGeometry x="87.17948717948715" y="91.1968" width="25.599999999999994" height="25.599999999999994" as="geometry"/>
                </mxCell>
                <mxCell id="30" value="ECS Task" style="sketch=0;outlineConnect=0;fontColor=#232F3E;gradientColor=none;fillColor=#D45B07;strokeColor=none;dashed=0;verticalLabelPosition=bottom;verticalAlign=top;align=center;html=1;fontSize=12;fontStyle=0;aspect=fixed;pointerEvents=1;shape=mxgraph.aws4.ecs_task;" parent="95" vertex="1">
                    <mxGeometry x="133.33333333333331" y="113.68320000000001" width="21.599999999999998" height="28.022399999999998" as="geometry"/>
                </mxCell>
                <mxCell id="36" value="Private subnet" style="points=[[0,0],[0.25,0],[0.5,0],[0.75,0],[1,0],[1,0.25],[1,0.5],[1,0.75],[1,1],[0.75,1],[0.5,1],[0.25,1],[0,1],[0,0.75],[0,0.5],[0,0.25]];outlineConnect=0;gradientColor=none;html=1;whiteSpace=wrap;fontSize=12;fontStyle=0;container=1;pointerEvents=0;collapsible=0;recursiveResize=0;shape=mxgraph.aws4.group;grIcon=mxgraph.aws4.group_security_group;grStroke=0;strokeColor=#147EBA;fillColor=#E6F2F8;verticalAlign=top;align=left;spacingLeft=30;fontColor=#147EBA;dashed=0;" parent="1" vertex="1">
                    <mxGeometry x="1258" y="1413.95" width="330" height="321" as="geometry"/>
                </mxCell>
                <mxCell id="38" value="Security group" style="fillColor=none;strokeColor=#DD3522;verticalAlign=top;fontStyle=0;fontColor=#DD3522;" parent="36" vertex="1">
                    <mxGeometry x="40" y="20" width="260" height="290" as="geometry"/>
                </mxCell>
                <mxCell id="60" value="" style="sketch=0;outlineConnect=0;fontColor=#232F3E;gradientColor=none;fillColor=#4D27AA;strokeColor=none;dashed=0;verticalLabelPosition=bottom;verticalAlign=top;align=center;html=1;fontSize=12;fontStyle=0;aspect=fixed;pointerEvents=1;shape=mxgraph.aws4.route_table;" parent="36" vertex="1">
                    <mxGeometry y="291" width="28.26" height="27.54" as="geometry"/>
                </mxCell>
                <mxCell id="262" value="" style="group" parent="36" vertex="1" connectable="0">
                    <mxGeometry x="100" y="46.05" width="190" height="253.95" as="geometry"/>
                </mxCell>
                <mxCell id="260" value="Redis Cluster" style="fillColor=none;strokeColor=#5A6C86;dashed=1;verticalAlign=top;fontStyle=0;fontColor=#5A6C86;labelBackgroundColor=none;fontSize=10;" parent="262" vertex="1">
                    <mxGeometry width="190" height="253.95" as="geometry"/>
                </mxCell>
                <mxCell id="259" value="" style="sketch=0;outlineConnect=0;fontColor=#232F3E;gradientColor=none;fillColor=#2E27AD;strokeColor=none;dashed=0;verticalLabelPosition=bottom;verticalAlign=top;align=center;html=1;fontSize=12;fontStyle=0;aspect=fixed;pointerEvents=1;shape=mxgraph.aws4.elasticache_for_redis;labelBackgroundColor=none;" parent="262" vertex="1">
                    <mxGeometry y="8.328107434443574e-14" width="39.56384615384615" height="35.00384615384615" as="geometry"/>
                </mxCell>
                <mxCell id="13" value="Shard(Streams/Cache)&lt;span style=&quot;color: rgb(5, 5, 5); font-size: 10px;&quot;&gt;&lt;br&gt;&lt;/span&gt;" style="sketch=0;points=[[0,0,0],[0.25,0,0],[0.5,0,0],[0.75,0,0],[1,0,0],[0,1,0],[0.25,1,0],[0.5,1,0],[0.75,1,0],[1,1,0],[0,0.25,0],[0,0.5,0],[0,0.75,0],[1,0.25,0],[1,0.5,0],[1,0.75,0]];outlineConnect=0;fontColor=#232F3E;gradientColor=#4D72F3;gradientDirection=north;fillColor=#3334B9;strokeColor=#ffffff;dashed=0;verticalLabelPosition=bottom;verticalAlign=top;align=center;html=1;fontSize=12;fontStyle=0;aspect=fixed;shape=mxgraph.aws4.resourceIcon;resIcon=mxgraph.aws4.elasticache;" parent="262" vertex="1">
                    <mxGeometry x="67" y="101.97000000000006" width="50" height="50" as="geometry"/>
                </mxCell>
                <mxCell id="34" value="Private subnet" style="points=[[0,0],[0.25,0],[0.5,0],[0.75,0],[1,0],[1,0.25],[1,0.5],[1,0.75],[1,1],[0.75,1],[0.5,1],[0.25,1],[0,1],[0,0.75],[0,0.5],[0,0.25]];outlineConnect=0;gradientColor=none;html=1;whiteSpace=wrap;fontSize=12;fontStyle=0;container=1;pointerEvents=0;collapsible=0;recursiveResize=0;shape=mxgraph.aws4.group;grIcon=mxgraph.aws4.group_security_group;grStroke=0;strokeColor=#147EBA;fillColor=#E6F2F8;verticalAlign=top;align=left;spacingLeft=30;fontColor=#147EBA;dashed=0;" parent="1" vertex="1">
                    <mxGeometry x="1218" y="1179.9999999999998" width="220" height="184.95" as="geometry"/>
                </mxCell>
                <mxCell id="35" value="Security group" style="fillColor=none;strokeColor=#DD3522;verticalAlign=top;fontStyle=0;fontColor=#DD3522;" parent="34" vertex="1">
                    <mxGeometry x="40" y="25" width="170" height="155" as="geometry"/>
                </mxCell>
                <mxCell id="237" value="" style="sketch=0;outlineConnect=0;fontColor=#232F3E;gradientColor=none;fillColor=#2E27AD;strokeColor=none;dashed=0;verticalLabelPosition=bottom;verticalAlign=top;align=center;html=1;fontSize=12;fontStyle=0;aspect=fixed;pointerEvents=1;shape=mxgraph.aws4.rds_proxy;labelBackgroundColor=none;" parent="34" vertex="1">
                    <mxGeometry x="50" y="65" width="30" height="30" as="geometry"/>
                </mxCell>
                <mxCell id="12" value="Primary" style="sketch=0;points=[[0,0,0],[0.25,0,0],[0.5,0,0],[0.75,0,0],[1,0,0],[0,1,0],[0.25,1,0],[0.5,1,0],[0.75,1,0],[1,1,0],[0,0.25,0],[0,0.5,0],[0,0.75,0],[1,0.25,0],[1,0.5,0],[1,0.75,0]];outlineConnect=0;fontColor=#232F3E;gradientColor=#4D72F3;gradientDirection=north;fillColor=#3334B9;strokeColor=#ffffff;dashed=0;verticalLabelPosition=bottom;verticalAlign=top;align=center;html=1;fontSize=12;fontStyle=0;aspect=fixed;shape=mxgraph.aws4.resourceIcon;resIcon=mxgraph.aws4.aurora;" parent="34" vertex="1">
                    <mxGeometry x="150" y="50" width="30" height="30" as="geometry"/>
                </mxCell>
                <mxCell id="240" value="" style="edgeStyle=orthogonalEdgeStyle;html=1;endArrow=block;elbow=vertical;startArrow=none;endFill=1;strokeColor=#545B64;rounded=0;fontSize=10;fontColor=#FFFFFF;" parent="34" source="237" target="12" edge="1">
                    <mxGeometry width="100" relative="1" as="geometry">
                        <mxPoint x="80" y="80" as="sourcePoint"/>
                        <mxPoint x="113" y="80" as="targetPoint"/>
                        <Array as="points">
                            <mxPoint x="110" y="80"/>
                            <mxPoint x="110" y="65"/>
                        </Array>
                    </mxGeometry>
                </mxCell>
                <mxCell id="268" value="write only" style="edgeLabel;html=1;align=center;verticalAlign=middle;resizable=0;points=[];fontSize=10;fontColor=#FFFFFF;" parent="240" vertex="1" connectable="0">
                    <mxGeometry x="0.3055" relative="1" as="geometry">
                        <mxPoint x="-11" as="offset"/>
                    </mxGeometry>
                </mxCell>
                <mxCell id="267" value="Read Replica" style="sketch=0;points=[[0,0,0],[0.25,0,0],[0.5,0,0],[0.75,0,0],[1,0,0],[0,1,0],[0.25,1,0],[0.5,1,0],[0.75,1,0],[1,1,0],[0,0.25,0],[0,0.5,0],[0,0.75,0],[1,0.25,0],[1,0.5,0],[1,0.75,0]];outlineConnect=0;fontColor=#232F3E;gradientColor=#4D72F3;gradientDirection=north;fillColor=#3334B9;strokeColor=#ffffff;dashed=0;verticalLabelPosition=bottom;verticalAlign=top;align=center;html=1;fontSize=12;fontStyle=0;aspect=fixed;shape=mxgraph.aws4.resourceIcon;resIcon=mxgraph.aws4.aurora;" parent="34" vertex="1">
                    <mxGeometry x="150" y="110" width="30" height="30" as="geometry"/>
                </mxCell>
                <mxCell id="96" value="" style="group;labelBackgroundColor=#1A1E05;" parent="1" vertex="1" connectable="0">
                    <mxGeometry x="1288" y="160" width="400" height="240" as="geometry"/>
                </mxCell>
                <mxCell id="97" value="Private subnet" style="points=[[0,0],[0.25,0],[0.5,0],[0.75,0],[1,0],[1,0.25],[1,0.5],[1,0.75],[1,1],[0.75,1],[0.5,1],[0.25,1],[0,1],[0,0.75],[0,0.5],[0,0.25]];outlineConnect=0;gradientColor=none;html=1;whiteSpace=wrap;fontSize=12;fontStyle=0;container=1;pointerEvents=0;collapsible=0;recursiveResize=0;shape=mxgraph.aws4.group;grIcon=mxgraph.aws4.group_security_group;grStroke=0;strokeColor=#147EBA;fillColor=#E6F2F8;verticalAlign=top;align=left;spacingLeft=30;fontColor=#147EBA;dashed=0;" parent="96" vertex="1">
                    <mxGeometry width="399.99999999999994" height="240" as="geometry"/>
                </mxCell>
                <mxCell id="98" value="" style="group" parent="96" vertex="1" connectable="0">
                    <mxGeometry x="20.51282051282051" y="38.4" width="369.23076923076917" height="172.79999999999998" as="geometry"/>
                </mxCell>
                <mxCell id="99" value="" style="fillColor=none;strokeColor=#5A6C86;dashed=1;verticalAlign=top;fontStyle=0;fontColor=#5A6C86;" parent="98" vertex="1">
                    <mxGeometry width="369.23076923076917" height="172.79999999999998" as="geometry"/>
                </mxCell>
                <mxCell id="100" value="" style="edgeStyle=none;html=1;" parent="98" source="109" edge="1">
                    <mxGeometry relative="1" as="geometry">
                        <mxPoint x="225.64102564102564" y="57.586842857142756" as="targetPoint"/>
                    </mxGeometry>
                </mxCell>
                <mxCell id="101" value="ECS Cluster" style="sketch=0;outlineConnect=0;fontColor=#232F3E;gradientColor=none;fillColor=#4D27AA;strokeColor=none;dashed=0;verticalLabelPosition=bottom;verticalAlign=top;align=center;html=1;fontSize=12;fontStyle=0;aspect=fixed;pointerEvents=1;shape=mxgraph.aws4.cluster;" parent="98" vertex="1">
                    <mxGeometry width="26.879999999999995" height="26.879999999999995" as="geometry"/>
                </mxCell>
                <mxCell id="111" value="ECS Service(VisitorWebSocketService)" style="fillColor=none;strokeColor=#5A6C86;dashed=1;verticalAlign=top;fontStyle=0;fontColor=#5A6C86;" parent="98" vertex="1">
                    <mxGeometry x="51.28205128205128" y="23.9968" width="297.4358974358974" height="124.79999999999998" as="geometry"/>
                </mxCell>
                <mxCell id="102" value="" style="group" parent="98" vertex="1" connectable="0">
                    <mxGeometry x="215.38461538461536" y="52.79679999999999" width="117.94871794871794" height="96.00319999999998" as="geometry"/>
                </mxCell>
                <mxCell id="103" value="" style="fillColor=none;strokeColor=#5A6C86;dashed=1;verticalAlign=top;fontStyle=0;fontColor=#5A6C86;" parent="102" vertex="1">
                    <mxGeometry y="0.0032000000000039102" width="117.94871794871794" height="79.9968" as="geometry"/>
                </mxCell>
                <mxCell id="104" value="Fargate" style="sketch=0;points=[[0,0,0],[0.25,0,0],[0.5,0,0],[0.75,0,0],[1,0,0],[0,1,0],[0.25,1,0],[0.5,1,0],[0.75,1,0],[1,1,0],[0,0.25,0],[0,0.5,0],[0,0.75,0],[1,0.25,0],[1,0.5,0],[1,0.75,0]];outlineConnect=0;fontColor=#232F3E;gradientColor=#F78E04;gradientDirection=north;fillColor=#D05C17;strokeColor=#ffffff;dashed=0;verticalLabelPosition=bottom;verticalAlign=top;align=center;html=1;fontSize=12;fontStyle=0;aspect=fixed;shape=mxgraph.aws4.resourceIcon;resIcon=mxgraph.aws4.fargate;" parent="102" vertex="1">
                    <mxGeometry width="25.599999999999994" height="25.599999999999994" as="geometry"/>
                </mxCell>
                <mxCell id="105" value="ECS Task" style="sketch=0;outlineConnect=0;fontColor=#232F3E;gradientColor=none;fillColor=#D45B07;strokeColor=none;dashed=0;verticalLabelPosition=bottom;verticalAlign=top;align=center;html=1;fontSize=12;fontStyle=0;aspect=fixed;pointerEvents=1;shape=mxgraph.aws4.ecs_task;" parent="102" vertex="1">
                    <mxGeometry x="46.153846153846146" y="22.486400000000003" width="21.599999999999998" height="28.022399999999998" as="geometry"/>
                </mxCell>
                <mxCell id="106" value="" style="group" parent="98" vertex="1" connectable="0">
                    <mxGeometry x="51.28205128205128" y="23.9968" width="297.4358974358974" height="124.80319999999998" as="geometry"/>
                </mxCell>
                <mxCell id="107" value="" style="sketch=0;points=[[0,0,0],[0.25,0,0],[0.5,0,0],[0.75,0,0],[1,0,0],[0,1,0],[0.25,1,0],[0.5,1,0],[0.75,1,0],[1,1,0],[0,0.25,0],[0,0.5,0],[0,0.75,0],[1,0.25,0],[1,0.5,0],[1,0.75,0]];outlineConnect=0;fontColor=#232F3E;gradientColor=#F78E04;gradientDirection=north;fillColor=#D05C17;strokeColor=#ffffff;dashed=0;verticalLabelPosition=bottom;verticalAlign=top;align=center;html=1;fontSize=12;fontStyle=0;aspect=fixed;shape=mxgraph.aws4.resourceIcon;resIcon=mxgraph.aws4.ecs;" parent="106" vertex="1">
                    <mxGeometry y="0.0031999999999970893" width="19.199999999999996" height="19.199999999999996" as="geometry"/>
                </mxCell>
                <mxCell id="108" value="" style="fillColor=none;strokeColor=#5A6C86;dashed=1;verticalAlign=top;fontStyle=0;fontColor=#5A6C86;" parent="98" vertex="1">
                    <mxGeometry x="66.66666666666666" y="52.8" width="117.94871794871794" height="79.9968" as="geometry"/>
                </mxCell>
                <mxCell id="109" value="Fargate" style="sketch=0;points=[[0,0,0],[0.25,0,0],[0.5,0,0],[0.75,0,0],[1,0,0],[0,1,0],[0.25,1,0],[0.5,1,0],[0.75,1,0],[1,1,0],[0,0.25,0],[0,0.5,0],[0,0.75,0],[1,0.25,0],[1,0.5,0],[1,0.75,0]];outlineConnect=0;fontColor=#232F3E;gradientColor=#F78E04;gradientDirection=north;fillColor=#D05C17;strokeColor=#ffffff;dashed=0;verticalLabelPosition=bottom;verticalAlign=top;align=center;html=1;fontSize=12;fontStyle=0;aspect=fixed;shape=mxgraph.aws4.resourceIcon;resIcon=mxgraph.aws4.fargate;" parent="98" vertex="1">
                    <mxGeometry x="66.66666666666666" y="52.7968" width="25.599999999999994" height="25.599999999999994" as="geometry"/>
                </mxCell>
                <mxCell id="110" value="ECS Task" style="sketch=0;outlineConnect=0;fontColor=#232F3E;gradientColor=none;fillColor=#D45B07;strokeColor=none;dashed=0;verticalLabelPosition=bottom;verticalAlign=top;align=center;html=1;fontSize=12;fontStyle=0;aspect=fixed;pointerEvents=1;shape=mxgraph.aws4.ecs_task;" parent="98" vertex="1">
                    <mxGeometry x="112.82051282051282" y="75.28320000000001" width="21.599999999999998" height="28.022399999999998" as="geometry"/>
                </mxCell>
                <mxCell id="112" value="" style="sketch=0;outlineConnect=0;fontColor=#232F3E;gradientColor=none;fillColor=#4D27AA;strokeColor=none;dashed=0;verticalLabelPosition=bottom;verticalAlign=top;align=center;html=1;fontSize=12;fontStyle=0;aspect=fixed;pointerEvents=1;shape=mxgraph.aws4.route_table;" parent="96" vertex="1">
                    <mxGeometry y="211.2" width="27.1296" height="26.438399999999998" as="geometry"/>
                </mxCell>
                <mxCell id="113" value="&lt;font color=&quot;#050505&quot;&gt;Internet&lt;/font&gt;" style="sketch=0;outlineConnect=0;fillColor=#050505;strokeColor=#56517e;dashed=0;verticalLabelPosition=bottom;verticalAlign=top;align=center;html=1;fontSize=12;fontStyle=0;aspect=fixed;pointerEvents=1;shape=mxgraph.aws4.internet_alt22;" parent="1" vertex="1">
                    <mxGeometry x="331" y="-120" width="58" height="58" as="geometry"/>
                </mxCell>
                <mxCell id="114" value="&lt;font color=&quot;#ffffff&quot;&gt;Internet Gateway&lt;/font&gt;" style="sketch=0;outlineConnect=0;fontColor=#232F3E;gradientColor=none;fillColor=#4D27AA;strokeColor=none;dashed=0;verticalLabelPosition=bottom;verticalAlign=top;align=center;html=1;fontSize=12;fontStyle=0;aspect=fixed;pointerEvents=1;shape=mxgraph.aws4.internet_gateway;" parent="1" vertex="1">
                    <mxGeometry x="336" y="40" width="48" height="48" as="geometry"/>
                </mxCell>
                <mxCell id="116" value="" style="edgeStyle=orthogonalEdgeStyle;html=1;endArrow=block;elbow=vertical;startArrow=block;startFill=1;endFill=1;strokeColor=#545B64;rounded=0;fontColor=#f1f2f3;" parent="1" source="18" target="30" edge="1">
                    <mxGeometry width="100" relative="1" as="geometry">
                        <mxPoint x="340" y="680" as="sourcePoint"/>
                        <mxPoint x="360" y="461" as="targetPoint"/>
                        <Array as="points">
                            <mxPoint x="170" y="255"/>
                            <mxPoint x="170" y="288"/>
                        </Array>
                    </mxGeometry>
                </mxCell>
                <mxCell id="162" value="チャット処理(WebSocket)" style="edgeLabel;html=1;align=center;verticalAlign=middle;resizable=0;points=[];fontSize=10;fontColor=#fafafa;" parent="116" vertex="1" connectable="0">
                    <mxGeometry x="-0.4141" relative="1" as="geometry">
                        <mxPoint as="offset"/>
                    </mxGeometry>
                </mxCell>
                <mxCell id="120" value="&lt;font color=&quot;#0a0000&quot;&gt;Internet&lt;/font&gt;" style="sketch=0;outlineConnect=0;fillColor=#535256;strokeColor=#050505;dashed=0;verticalLabelPosition=bottom;verticalAlign=top;align=center;html=1;fontSize=12;fontStyle=0;aspect=fixed;pointerEvents=1;shape=mxgraph.aws4.internet_alt22;" parent="1" vertex="1">
                    <mxGeometry x="885" y="-117" width="58" height="58" as="geometry"/>
                </mxCell>
                <mxCell id="121" value="&lt;font color=&quot;#000000&quot;&gt;Company&lt;/font&gt;" style="sketch=0;outlineConnect=0;fontColor=#232F3E;gradientColor=none;strokeColor=#222d3a;fillColor=#ffffff;dashed=0;verticalLabelPosition=bottom;verticalAlign=top;align=center;html=1;fontSize=12;fontStyle=0;aspect=fixed;shape=mxgraph.aws4.resourceIcon;resIcon=mxgraph.aws4.client;" parent="1" vertex="1">
                    <mxGeometry x="884" y="-317" width="60" height="60" as="geometry"/>
                </mxCell>
                <mxCell id="130" value="" style="edgeStyle=orthogonalEdgeStyle;html=1;endArrow=block;elbow=vertical;startArrow=none;endFill=1;strokeColor=#545B64;rounded=0;fontColor=#f1f2f3;" parent="1" source="120" edge="1">
                    <mxGeometry width="100" relative="1" as="geometry">
                        <mxPoint x="855" y="-87" as="sourcePoint"/>
                        <mxPoint x="915" y="-227" as="targetPoint"/>
                        <Array as="points">
                            <mxPoint x="915" y="-147"/>
                            <mxPoint x="915" y="-147"/>
                        </Array>
                    </mxGeometry>
                </mxCell>
                <mxCell id="165" value="外部チャットツールへ通知" style="edgeLabel;html=1;align=center;verticalAlign=middle;resizable=0;points=[];fontSize=10;fontColor=#fafafa;" parent="130" vertex="1" connectable="0">
                    <mxGeometry x="0.1725" relative="1" as="geometry">
                        <mxPoint as="offset"/>
                    </mxGeometry>
                </mxCell>
                <mxCell id="131" value="サイトにアクセス" style="edgeStyle=orthogonalEdgeStyle;html=1;endArrow=block;elbow=vertical;startArrow=none;endFill=1;strokeColor=#545B64;rounded=0;fontColor=#f1f2f3;" parent="1" source="6" target="113" edge="1">
                    <mxGeometry x="-0.0024" y="30" width="100" relative="1" as="geometry">
                        <mxPoint x="570" y="420" as="sourcePoint"/>
                        <mxPoint x="670" y="420" as="targetPoint"/>
                        <mxPoint as="offset"/>
                    </mxGeometry>
                </mxCell>
                <mxCell id="132" value="WebSocket接続" style="edgeStyle=orthogonalEdgeStyle;html=1;endArrow=block;elbow=vertical;startArrow=none;endFill=1;strokeColor=#545B64;rounded=0;fontColor=#f1f2f3;" parent="1" source="113" target="114" edge="1">
                    <mxGeometry width="100" relative="1" as="geometry">
                        <mxPoint x="371" y="-250" as="sourcePoint"/>
                        <mxPoint x="370" y="-109.66141964792678" as="targetPoint"/>
                    </mxGeometry>
                </mxCell>
                <mxCell id="133" value="" style="edgeStyle=orthogonalEdgeStyle;html=1;endArrow=block;elbow=vertical;startArrow=none;endFill=1;strokeColor=#545B64;rounded=0;fontColor=#f1f2f3;" parent="1" source="114" target="18" edge="1">
                    <mxGeometry width="100" relative="1" as="geometry">
                        <mxPoint x="360.75999999999976" y="88.00141964792746" as="sourcePoint"/>
                        <mxPoint x="360.75999999999976" y="190.34054657253486" as="targetPoint"/>
                    </mxGeometry>
                </mxCell>
                <mxCell id="135" value="" style="edgeStyle=orthogonalEdgeStyle;html=1;endArrow=block;elbow=vertical;startArrow=block;startFill=1;endFill=1;strokeColor=#545B64;rounded=0;fontColor=#f1f2f3;" parent="1" source="309" target="13" edge="1">
                    <mxGeometry width="100" relative="1" as="geometry">
                        <mxPoint x="717" y="863" as="sourcePoint"/>
                        <mxPoint x="1328.04347826087" y="1524.9499999999998" as="targetPoint"/>
                        <Array as="points">
                            <mxPoint x="880" y="1527"/>
                            <mxPoint x="1450" y="1527"/>
                        </Array>
                    </mxGeometry>
                </mxCell>
                <mxCell id="190" value="&lt;span style=&quot;color: rgba(0, 0, 0, 0); font-family: monospace; font-size: 0px; text-align: start; background-color: rgb(42, 37, 47);&quot;&gt;%3CmxGraphModel%3E%3Croot%3E%3CmxCell%20id%3D%220%22%2F%3E%3CmxCell%20id%3D%221%22%20parent%3D%220%22%2F%3E%3CmxCell%20id%3D%222%22%20value%3D%22Publish%2FSubscrie%22%20style%3D%22edgeLabel%3Bhtml%3D1%3Balign%3Dcenter%3BverticalAlign%3Dmiddle%3Bresizable%3D0%3Bpoints%3D%5B%5D%3BfontSize%3D10%3BfontColor%3D%23FFFFFF%3B%22%20vertex%3D%221%22%20connectable%3D%220%22%20parent%3D%221%22%3E%3CmxGeometry%20x%3D%22849.0303030303032%22%20y%3D%22516.5778101652181%22%20as%3D%22geometry%22%2F%3E%3C%2FmxCell%3E%3C%2Froot%3E%3C%2FmxGraphModel%3&lt;/span&gt;" style="edgeLabel;html=1;align=center;verticalAlign=middle;resizable=0;points=[];fontSize=10;fontColor=#FFFFFF;" parent="135" vertex="1" connectable="0">
                    <mxGeometry x="0.824" y="-1" relative="1" as="geometry">
                        <mxPoint as="offset"/>
                    </mxGeometry>
                </mxCell>
                <mxCell id="337" value="&lt;span style=&quot;color: rgb(255, 255, 255); font-size: 10px;&quot;&gt;Publish/Subscribe&lt;/span&gt;" style="edgeLabel;html=1;align=center;verticalAlign=middle;resizable=0;points=[];" vertex="1" connectable="0" parent="135">
                    <mxGeometry x="0.1605" y="-1" relative="1" as="geometry">
                        <mxPoint x="-1" y="-1" as="offset"/>
                    </mxGeometry>
                </mxCell>
                <mxCell id="136" value="" style="edgeStyle=orthogonalEdgeStyle;html=1;endArrow=block;elbow=vertical;startArrow=block;startFill=1;endFill=1;strokeColor=#545B64;rounded=0;fontColor=#f1f2f3;exitX=1;exitY=0.25;exitDx=0;exitDy=0;exitPerimeter=0;" parent="1" source="13" target="323" edge="1">
                    <mxGeometry width="100" relative="1" as="geometry">
                        <mxPoint x="1308" y="1545.0000000000005" as="sourcePoint"/>
                        <mxPoint x="1370" y="520" as="targetPoint"/>
                        <Array as="points">
                            <mxPoint x="1505" y="1574"/>
                        </Array>
                    </mxGeometry>
                </mxCell>
                <mxCell id="341" value="&lt;span style=&quot;color: rgb(255, 255, 255); font-size: 10px;&quot;&gt;Publish/Subscribe&lt;/span&gt;" style="edgeLabel;html=1;align=center;verticalAlign=middle;resizable=0;points=[];" vertex="1" connectable="0" parent="136">
                    <mxGeometry x="0.3348" relative="1" as="geometry">
                        <mxPoint as="offset"/>
                    </mxGeometry>
                </mxCell>
                <mxCell id="144" value="" style="edgeStyle=orthogonalEdgeStyle;html=1;endArrow=block;elbow=vertical;startArrow=none;endFill=1;strokeColor=#545B64;rounded=0;fontSize=10;fontColor=#050505;" parent="1" source="309" target="13" edge="1">
                    <mxGeometry width="100" relative="1" as="geometry">
                        <mxPoint x="540" y="570" as="sourcePoint"/>
                        <mxPoint x="1358" y="1543" as="targetPoint"/>
                        <Array as="points">
                            <mxPoint x="790" y="883"/>
                            <mxPoint x="790" y="1583"/>
                        </Array>
                    </mxGeometry>
                </mxCell>
                <mxCell id="338" value="&lt;span style=&quot;color: rgb(255, 255, 255); font-size: 10px;&quot;&gt;キャッシュ取得&lt;/span&gt;" style="edgeLabel;html=1;align=center;verticalAlign=middle;resizable=0;points=[];" vertex="1" connectable="0" parent="144">
                    <mxGeometry x="0.4713" y="-3" relative="1" as="geometry">
                        <mxPoint as="offset"/>
                    </mxGeometry>
                </mxCell>
                <mxCell id="151" value="" style="edgeStyle=orthogonalEdgeStyle;html=1;endArrow=block;elbow=vertical;startArrow=none;endFill=1;strokeColor=#545B64;rounded=0;fontSize=10;fontColor=#050505;" parent="1" source="323" target="237" edge="1">
                    <mxGeometry width="100" relative="1" as="geometry">
                        <mxPoint x="1060" y="650" as="sourcePoint"/>
                        <mxPoint x="1030" y="970" as="targetPoint"/>
                        <Array as="points">
                            <mxPoint x="1504" y="884"/>
                            <mxPoint x="1283" y="884"/>
                        </Array>
                    </mxGeometry>
                </mxCell>
                <mxCell id="340" value="&lt;span style=&quot;color: rgb(255, 255, 255); font-size: 10px;&quot;&gt;データ取得&lt;/span&gt;" style="edgeLabel;html=1;align=center;verticalAlign=middle;resizable=0;points=[];" vertex="1" connectable="0" parent="151">
                    <mxGeometry x="-0.0388" y="3" relative="1" as="geometry">
                        <mxPoint y="1" as="offset"/>
                    </mxGeometry>
                </mxCell>
                <mxCell id="166" value="" style="dashed=0;aspect=fixed;verticalLabelPosition=bottom;verticalAlign=top;align=center;shape=mxgraph.gmdl.chat;strokeColor=none;fillColor=#737373;shadow=0;sketch=0;labelBackgroundColor=#1A1E05;fontSize=10;fontColor=#fafafa;" parent="1" vertex="1">
                    <mxGeometry x="923" y="-337" width="20" height="20" as="geometry"/>
                </mxCell>
                <mxCell id="167" value="VPC" style="points=[[0,0],[0.25,0],[0.5,0],[0.75,0],[1,0],[1,0.25],[1,0.5],[1,0.75],[1,1],[0.75,1],[0.5,1],[0.25,1],[0,1],[0,0.75],[0,0.5],[0,0.25]];outlineConnect=0;gradientColor=none;html=1;whiteSpace=wrap;fontSize=12;fontStyle=0;container=1;pointerEvents=0;collapsible=0;recursiveResize=0;shape=mxgraph.aws4.group;grIcon=mxgraph.aws4.group_vpc;strokeColor=#248814;fillColor=none;verticalAlign=top;align=left;spacingLeft=30;fontColor=#AAB7B8;dashed=0;labelBackgroundColor=#1A1E05;" parent="1" vertex="1">
                    <mxGeometry x="10" y="1082.59" width="1943" height="660" as="geometry"/>
                </mxCell>
                <mxCell id="216" value="&lt;span style=&quot;&quot;&gt;Private subnet&lt;/span&gt;" style="points=[[0,0],[0.25,0],[0.5,0],[0.75,0],[1,0],[1,0.25],[1,0.5],[1,0.75],[1,1],[0.75,1],[0.5,1],[0.25,1],[0,1],[0,0.75],[0,0.5],[0,0.25]];outlineConnect=0;gradientColor=none;html=1;whiteSpace=wrap;fontSize=12;fontStyle=0;container=1;pointerEvents=0;collapsible=0;recursiveResize=0;shape=mxgraph.aws4.group;grIcon=mxgraph.aws4.group_security_group;grStroke=0;strokeColor=#147EBA;fillColor=#E6F2F8;verticalAlign=top;align=left;spacingLeft=30;fontColor=#147EBA;dashed=0;labelBackgroundColor=none;" parent="167" vertex="1">
                    <mxGeometry x="242" y="40" width="267" height="210" as="geometry"/>
                </mxCell>
                <mxCell id="322" value="" style="group" parent="216" vertex="1" connectable="0">
                    <mxGeometry x="79.99999999999999" y="53.41" width="110" height="95" as="geometry"/>
                </mxCell>
                <mxCell id="202" value="Security group" style="fillColor=none;strokeColor=#DD3522;verticalAlign=top;fontStyle=0;fontColor=#DD3522;" parent="322" vertex="1">
                    <mxGeometry width="110" height="95" as="geometry"/>
                </mxCell>
                <mxCell id="330" value="Lambda" style="sketch=0;points=[[0,0,0],[0.25,0,0],[0.5,0,0],[0.75,0,0],[1,0,0],[0,1,0],[0.25,1,0],[0.5,1,0],[0.75,1,0],[1,1,0],[0,0.25,0],[0,0.5,0],[0,0.75,0],[1,0.25,0],[1,0.5,0],[1,0.75,0]];outlineConnect=0;fontColor=#232F3E;gradientColor=#F78E04;gradientDirection=north;fillColor=#D05C17;strokeColor=#ffffff;dashed=0;verticalLabelPosition=bottom;verticalAlign=top;align=center;html=1;fontSize=12;fontStyle=0;aspect=fixed;shape=mxgraph.aws4.resourceIcon;resIcon=mxgraph.aws4.lambda;" parent="322" vertex="1">
                    <mxGeometry x="31.30000000000001" y="35" width="45" height="45" as="geometry"/>
                </mxCell>
                <mxCell id="87" value="" style="sketch=0;outlineConnect=0;fontColor=#232F3E;gradientColor=none;fillColor=#4D27AA;strokeColor=none;dashed=0;verticalLabelPosition=bottom;verticalAlign=top;align=center;html=1;fontSize=12;fontStyle=0;aspect=fixed;pointerEvents=1;shape=mxgraph.aws4.route_table;" parent="216" vertex="1">
                    <mxGeometry y="183.45000000000022" width="27.24264" height="26.54856" as="geometry"/>
                </mxCell>
                <mxCell id="59" value="" style="sketch=0;outlineConnect=0;fontColor=#232F3E;gradientColor=none;fillColor=#4D27AA;strokeColor=none;dashed=0;verticalLabelPosition=bottom;verticalAlign=top;align=center;html=1;fontSize=12;fontStyle=0;aspect=fixed;pointerEvents=1;shape=mxgraph.aws4.route_table;" parent="167" vertex="1">
                    <mxGeometry x="1208" y="252.36" width="28.26" height="27.54" as="geometry"/>
                </mxCell>
                <mxCell id="169" value="&lt;font color=&quot;#ffffff&quot;&gt;Internet Gateway&lt;/font&gt;" style="sketch=0;outlineConnect=0;fontColor=#232F3E;gradientColor=none;fillColor=#4D27AA;strokeColor=none;dashed=0;verticalLabelPosition=bottom;verticalAlign=top;align=center;html=1;fontSize=12;fontStyle=0;aspect=fixed;pointerEvents=1;shape=mxgraph.aws4.internet_gateway;" parent="1" vertex="1">
                    <mxGeometry x="1598" y="50" width="48" height="48" as="geometry"/>
                </mxCell>
                <mxCell id="170" value="Public subnet" style="points=[[0,0],[0.25,0],[0.5,0],[0.75,0],[1,0],[1,0.25],[1,0.5],[1,0.75],[1,1],[0.75,1],[0.5,1],[0.25,1],[0,1],[0,0.75],[0,0.5],[0,0.25]];outlineConnect=0;gradientColor=none;html=1;whiteSpace=wrap;fontSize=12;fontStyle=0;container=1;pointerEvents=0;collapsible=0;recursiveResize=0;shape=mxgraph.aws4.group;grIcon=mxgraph.aws4.group_security_group;grStroke=0;strokeColor=#248814;fillColor=#E9F3E6;verticalAlign=top;align=left;spacingLeft=30;fontColor=#248814;dashed=0;" parent="1" vertex="1">
                    <mxGeometry x="1758" y="160" width="160" height="160" as="geometry"/>
                </mxCell>
                <mxCell id="171" value="Security group" style="fillColor=none;strokeColor=#DD3522;verticalAlign=top;fontStyle=0;fontColor=#DD3522;" parent="170" vertex="1">
                    <mxGeometry x="24.75" y="30" width="110.5" height="110" as="geometry"/>
                </mxCell>
                <mxCell id="172" value="ALB" style="sketch=0;outlineConnect=0;fontColor=#232F3E;gradientColor=none;fillColor=#4D27AA;strokeColor=none;dashed=0;verticalLabelPosition=bottom;verticalAlign=top;align=center;html=1;fontSize=12;fontStyle=0;aspect=fixed;pointerEvents=1;shape=mxgraph.aws4.application_load_balancer;" parent="170" vertex="1">
                    <mxGeometry x="55.5" y="70" width="49" height="49" as="geometry"/>
                </mxCell>
                <mxCell id="173" value="" style="edgeStyle=orthogonalEdgeStyle;html=1;endArrow=block;elbow=vertical;startArrow=none;endFill=1;strokeColor=#545B64;rounded=0;fontSize=10;fontColor=#FFFFFF;" parent="1" source="169" target="172" edge="1">
                    <mxGeometry width="100" relative="1" as="geometry">
                        <mxPoint x="1138" y="430" as="sourcePoint"/>
                        <mxPoint x="1238" y="430" as="targetPoint"/>
                    </mxGeometry>
                </mxCell>
                <mxCell id="174" value="" style="edgeStyle=orthogonalEdgeStyle;html=1;endArrow=block;elbow=vertical;startArrow=none;endFill=1;strokeColor=#545B64;rounded=0;fontSize=10;fontColor=#FFFFFF;" parent="1" source="120" target="169" edge="1">
                    <mxGeometry width="100" relative="1" as="geometry">
                        <mxPoint x="820" y="430" as="sourcePoint"/>
                        <mxPoint x="920" y="430" as="targetPoint"/>
                    </mxGeometry>
                </mxCell>
                <mxCell id="179" value="WebSocket接続" style="edgeLabel;html=1;align=center;verticalAlign=middle;resizable=0;points=[];fontSize=10;fontColor=#FFFFFF;" parent="174" vertex="1" connectable="0">
                    <mxGeometry x="-0.445" relative="1" as="geometry">
                        <mxPoint as="offset"/>
                    </mxGeometry>
                </mxCell>
                <mxCell id="175" value="" style="edgeStyle=orthogonalEdgeStyle;html=1;endArrow=block;elbow=vertical;startArrow=none;endFill=1;strokeColor=#545B64;rounded=0;fontSize=10;fontColor=#FFFFFF;" parent="1" source="121" target="120" edge="1">
                    <mxGeometry width="100" relative="1" as="geometry">
                        <mxPoint x="935" y="143" as="sourcePoint"/>
                        <mxPoint x="1035" y="143" as="targetPoint"/>
                        <Array as="points">
                            <mxPoint x="935" y="-227"/>
                            <mxPoint x="935" y="-227"/>
                        </Array>
                    </mxGeometry>
                </mxCell>
                <mxCell id="178" value="Webサイトにアクセス" style="edgeLabel;html=1;align=center;verticalAlign=middle;resizable=0;points=[];fontSize=10;fontColor=#FFFFFF;" parent="175" vertex="1" connectable="0">
                    <mxGeometry x="-0.3041" y="-1" relative="1" as="geometry">
                        <mxPoint as="offset"/>
                    </mxGeometry>
                </mxCell>
                <mxCell id="176" value="VPC" style="points=[[0,0],[0.25,0],[0.5,0],[0.75,0],[1,0],[1,0.25],[1,0.5],[1,0.75],[1,1],[0.75,1],[0.5,1],[0.25,1],[0,1],[0,0.75],[0,0.5],[0,0.25]];outlineConnect=0;gradientColor=none;html=1;whiteSpace=wrap;fontSize=12;fontStyle=0;container=1;pointerEvents=0;collapsible=0;recursiveResize=0;shape=mxgraph.aws4.group;grIcon=mxgraph.aws4.group_vpc;strokeColor=#248814;fillColor=none;verticalAlign=top;align=left;spacingLeft=30;fontColor=#AAB7B8;dashed=0;labelBackgroundColor=#1A1E05;" parent="1" vertex="1">
                    <mxGeometry x="20" y="40" width="728" height="560" as="geometry"/>
                </mxCell>
                <mxCell id="279" value="&lt;span style=&quot;&quot;&gt;Private subnet&lt;/span&gt;" style="points=[[0,0],[0.25,0],[0.5,0],[0.75,0],[1,0],[1,0.25],[1,0.5],[1,0.75],[1,1],[0.75,1],[0.5,1],[0.25,1],[0,1],[0,0.75],[0,0.5],[0,0.25]];outlineConnect=0;gradientColor=none;html=1;whiteSpace=wrap;fontSize=12;fontStyle=0;container=1;pointerEvents=0;collapsible=0;recursiveResize=0;shape=mxgraph.aws4.group;grIcon=mxgraph.aws4.group_security_group;grStroke=0;strokeColor=#147EBA;fillColor=#E6F2F8;verticalAlign=top;align=left;spacingLeft=30;fontColor=#147EBA;dashed=0;labelBackgroundColor=none;" parent="176" vertex="1">
                    <mxGeometry x="270" y="380.00000000000006" width="340" height="164.95" as="geometry"/>
                </mxCell>
                <mxCell id="289" value="" style="group" parent="279" vertex="1" connectable="0">
                    <mxGeometry x="123.32999999999998" y="31.999999999999943" width="113.46000000000001" height="95" as="geometry"/>
                </mxCell>
                <mxCell id="282" value="Security group" style="fillColor=none;strokeColor=#DD3522;verticalAlign=top;fontStyle=0;fontColor=#DD3522;" parent="289" vertex="1">
                    <mxGeometry width="113.46" height="95" as="geometry"/>
                </mxCell>
                <mxCell id="283" value="&lt;font style=&quot;font-size: 6px;&quot;&gt;VPC エンドポイント&lt;/font&gt;" style="sketch=0;outlineConnect=0;fontColor=#232F3E;gradientColor=none;fillColor=#4D27AA;strokeColor=none;dashed=0;verticalLabelPosition=bottom;verticalAlign=top;align=center;html=1;fontSize=12;fontStyle=0;aspect=fixed;pointerEvents=1;shape=mxgraph.aws4.endpoints;labelBackgroundColor=none;direction=south;" parent="289" vertex="1">
                    <mxGeometry x="33.970000000000056" y="30.000000000000057" width="40" height="40" as="geometry"/>
                </mxCell>
                <mxCell id="326" value="" style="sketch=0;outlineConnect=0;fontColor=#232F3E;gradientColor=none;fillColor=#4D27AA;strokeColor=none;dashed=0;verticalLabelPosition=bottom;verticalAlign=top;align=center;html=1;fontSize=12;fontStyle=0;aspect=fixed;pointerEvents=1;shape=mxgraph.aws4.route_table;" parent="279" vertex="1">
                    <mxGeometry y="137.99999999999994" width="27.1296" height="26.438399999999998" as="geometry"/>
                </mxCell>
                <mxCell id="177" value="VPC" style="points=[[0,0],[0.25,0],[0.5,0],[0.75,0],[1,0],[1,0.25],[1,0.5],[1,0.75],[1,1],[0.75,1],[0.5,1],[0.25,1],[0,1],[0,0.75],[0,0.5],[0,0.25]];outlineConnect=0;gradientColor=none;html=1;whiteSpace=wrap;fontSize=12;fontStyle=0;container=1;pointerEvents=0;collapsible=0;recursiveResize=0;shape=mxgraph.aws4.group;grIcon=mxgraph.aws4.group_vpc;strokeColor=#248814;fillColor=none;verticalAlign=top;align=left;spacingLeft=30;fontColor=#AAB7B8;dashed=0;labelBackgroundColor=#1A1E05;" parent="1" vertex="1">
                    <mxGeometry x="1228" y="40" width="720" height="560" as="geometry"/>
                </mxCell>
                <mxCell id="180" value="" style="edgeStyle=orthogonalEdgeStyle;html=1;endArrow=block;elbow=vertical;startArrow=block;startFill=1;endFill=1;strokeColor=#545B64;rounded=0;fontSize=10;fontColor=#FFFFFF;" parent="177" source="105" edge="1">
                    <mxGeometry width="100" relative="1" as="geometry">
                        <mxPoint x="485.5" y="214.07999999999998" as="sourcePoint"/>
                        <mxPoint x="585.5" y="214.07999999999998" as="targetPoint"/>
                        <Array as="points">
                            <mxPoint x="470" y="248"/>
                            <mxPoint x="470" y="214"/>
                        </Array>
                    </mxGeometry>
                </mxCell>
                <mxCell id="181" value="チャット処理" style="edgeLabel;html=1;align=center;verticalAlign=middle;resizable=0;points=[];fontSize=10;fontColor=#FFFFFF;" parent="180" vertex="1" connectable="0">
                    <mxGeometry x="0.1922" y="1" relative="1" as="geometry">
                        <mxPoint as="offset"/>
                    </mxGeometry>
                </mxCell>
                <mxCell id="311" value="&lt;span style=&quot;&quot;&gt;Private subnet&lt;/span&gt;" style="points=[[0,0],[0.25,0],[0.5,0],[0.75,0],[1,0],[1,0.25],[1,0.5],[1,0.75],[1,1],[0.75,1],[0.5,1],[0.25,1],[0,1],[0,0.75],[0,0.5],[0,0.25]];outlineConnect=0;gradientColor=none;html=1;whiteSpace=wrap;fontSize=12;fontStyle=0;container=1;pointerEvents=0;collapsible=0;recursiveResize=0;shape=mxgraph.aws4.group;grIcon=mxgraph.aws4.group_security_group;grStroke=0;strokeColor=#147EBA;fillColor=#E6F2F8;verticalAlign=top;align=left;spacingLeft=30;fontColor=#147EBA;dashed=0;labelBackgroundColor=none;movable=1;resizable=1;rotatable=1;deletable=1;editable=1;connectable=1;" parent="177" vertex="1">
                    <mxGeometry x="21.999999999999943" y="375" width="205" height="164.95" as="geometry"/>
                </mxCell>
                <mxCell id="312" value="" style="group" parent="311" vertex="1" connectable="0">
                    <mxGeometry x="47.999999999999986" y="41.96999999999994" width="113.46000000000001" height="95" as="geometry"/>
                </mxCell>
                <mxCell id="313" value="Security group" style="fillColor=none;strokeColor=#DD3522;verticalAlign=top;fontStyle=0;fontColor=#DD3522;" parent="312" vertex="1">
                    <mxGeometry width="113.46" height="95" as="geometry"/>
                </mxCell>
                <mxCell id="314" value="&lt;font style=&quot;font-size: 6px;&quot;&gt;VPC エンドポイント&lt;/font&gt;" style="sketch=0;outlineConnect=0;fontColor=#232F3E;gradientColor=none;fillColor=#4D27AA;strokeColor=none;dashed=0;verticalLabelPosition=bottom;verticalAlign=top;align=center;html=1;fontSize=12;fontStyle=0;aspect=fixed;pointerEvents=1;shape=mxgraph.aws4.endpoints;labelBackgroundColor=none;direction=south;" parent="312" vertex="1">
                    <mxGeometry x="33.970000000000056" y="30.000000000000057" width="40" height="40" as="geometry"/>
                </mxCell>
                <mxCell id="327" value="" style="sketch=0;outlineConnect=0;fontColor=#232F3E;gradientColor=none;fillColor=#4D27AA;strokeColor=none;dashed=0;verticalLabelPosition=bottom;verticalAlign=top;align=center;html=1;fontSize=12;fontStyle=0;aspect=fixed;pointerEvents=1;shape=mxgraph.aws4.route_table;" parent="311" vertex="1">
                    <mxGeometry y="136.97000000000003" width="27.1296" height="26.438399999999998" as="geometry"/>
                </mxCell>
                <mxCell id="221" value="" style="edgeStyle=orthogonalEdgeStyle;html=1;endArrow=block;elbow=vertical;startArrow=none;endFill=1;strokeColor=#545B64;rounded=0;fontSize=10;fontColor=#FFFFFF;" parent="1" target="283" edge="1">
                    <mxGeometry width="100" relative="1" as="geometry">
                        <mxPoint x="430" y="300" as="sourcePoint"/>
                        <mxPoint x="270" y="570" as="targetPoint"/>
                        <Array as="points">
                            <mxPoint x="430" y="360"/>
                            <mxPoint x="467" y="360"/>
                        </Array>
                    </mxGeometry>
                </mxCell>
                <mxCell id="235" value="" style="edgeStyle=orthogonalEdgeStyle;html=1;endArrow=block;elbow=vertical;startArrow=none;endFill=1;strokeColor=#545B64;rounded=0;fontSize=10;fontColor=#FFFFFF;" parent="1" source="323" target="13" edge="1">
                    <mxGeometry width="100" relative="1" as="geometry">
                        <mxPoint x="990" y="560" as="sourcePoint"/>
                        <mxPoint x="1308" y="1545" as="targetPoint"/>
                        <Array as="points">
                            <mxPoint x="1585" y="885"/>
                            <mxPoint x="1585" y="1587"/>
                        </Array>
                    </mxGeometry>
                </mxCell>
                <mxCell id="342" value="&lt;span style=&quot;color: rgb(255, 255, 255); font-size: 10px;&quot;&gt;キャッシュ取得&lt;/span&gt;" style="edgeLabel;html=1;align=center;verticalAlign=middle;resizable=0;points=[];" vertex="1" connectable="0" parent="235">
                    <mxGeometry x="-0.5682" y="-5" relative="1" as="geometry">
                        <mxPoint as="offset"/>
                    </mxGeometry>
                </mxCell>
                <mxCell id="67" value="SQS" style="sketch=0;points=[[0,0,0],[0.25,0,0],[0.5,0,0],[0.75,0,0],[1,0,0],[0,1,0],[0.25,1,0],[0.5,1,0],[0.75,1,0],[1,1,0],[0,0.25,0],[0,0.5,0],[0,0.75,0],[1,0.25,0],[1,0.5,0],[1,0.75,0]];outlineConnect=0;fontColor=#232F3E;gradientColor=#FF4F8B;gradientDirection=north;fillColor=#BC1356;strokeColor=#ffffff;dashed=0;verticalLabelPosition=bottom;verticalAlign=top;align=center;html=1;fontSize=12;fontStyle=0;aspect=fixed;shape=mxgraph.aws4.resourceIcon;resIcon=mxgraph.aws4.sqs;" parent="1" vertex="1">
                    <mxGeometry x="519.8" y="779" width="59" height="59" as="geometry"/>
                </mxCell>
                <mxCell id="63" value="SQS" style="sketch=0;points=[[0,0,0],[0.25,0,0],[0.5,0,0],[0.75,0,0],[1,0,0],[0,1,0],[0.25,1,0],[0.5,1,0],[0.75,1,0],[1,1,0],[0,0.25,0],[0,0.5,0],[0,0.75,0],[1,0.25,0],[1,0.5,0],[1,0.75,0]];outlineConnect=0;fontColor=#232F3E;gradientColor=#FF4F8B;gradientDirection=north;fillColor=#BC1356;strokeColor=#ffffff;dashed=0;verticalLabelPosition=bottom;verticalAlign=top;align=center;html=1;fontSize=12;fontStyle=0;aspect=fixed;shape=mxgraph.aws4.resourceIcon;resIcon=mxgraph.aws4.sqs;" parent="1" vertex="1">
                    <mxGeometry x="355.8" y="779" width="60" height="60" as="geometry"/>
                </mxCell>
                <mxCell id="254" value="" style="edgeStyle=orthogonalEdgeStyle;html=1;endArrow=block;elbow=vertical;startArrow=none;endFill=1;strokeColor=#545B64;rounded=0;fontSize=10;fontColor=#FFFFFF;" parent="1" source="91" target="120" edge="1">
                    <mxGeometry width="100" relative="1" as="geometry">
                        <mxPoint x="734.2352941176471" y="1164.5900000000001" as="sourcePoint"/>
                        <mxPoint x="630" y="960" as="targetPoint"/>
                        <Array as="points">
                            <mxPoint x="1029" y="200"/>
                            <mxPoint x="914" y="200"/>
                        </Array>
                    </mxGeometry>
                </mxCell>
                <mxCell id="255" value="通知" style="edgeLabel;html=1;align=center;verticalAlign=middle;resizable=0;points=[];fontSize=10;fontColor=#FFFFFF;" parent="254" vertex="1" connectable="0">
                    <mxGeometry x="0.6295" y="2" relative="1" as="geometry">
                        <mxPoint as="offset"/>
                    </mxGeometry>
                </mxCell>
                <mxCell id="265" value="" style="edgeStyle=orthogonalEdgeStyle;html=1;endArrow=block;elbow=vertical;startArrow=none;endFill=1;strokeColor=#545B64;rounded=0;fontSize=10;fontColor=#FFFFFF;" parent="1" source="309" target="237" edge="1">
                    <mxGeometry width="100" relative="1" as="geometry">
                        <mxPoint x="879.1162790697674" y="1099.6399999999999" as="sourcePoint"/>
                        <mxPoint x="1030" y="1237.6399999999999" as="targetPoint"/>
                        <Array as="points">
                            <mxPoint x="955" y="883"/>
                            <mxPoint x="955" y="1258"/>
                        </Array>
                    </mxGeometry>
                </mxCell>
                <mxCell id="339" value="&lt;span style=&quot;color: rgb(255, 255, 255); font-size: 10px;&quot;&gt;データ取得&lt;/span&gt;" style="edgeLabel;html=1;align=center;verticalAlign=middle;resizable=0;points=[];" vertex="1" connectable="0" parent="265">
                    <mxGeometry x="0.2267" y="2" relative="1" as="geometry">
                        <mxPoint x="1" as="offset"/>
                    </mxGeometry>
                </mxCell>
                <mxCell id="269" value="" style="edgeStyle=orthogonalEdgeStyle;html=1;endArrow=block;elbow=vertical;startArrow=none;endFill=1;strokeColor=#545B64;rounded=0;fontSize=10;fontColor=#FFFFFF;" parent="1" target="267" edge="1">
                    <mxGeometry width="100" relative="1" as="geometry">
                        <mxPoint x="1298" y="1259.9999999999998" as="sourcePoint"/>
                        <mxPoint x="1278" y="1359.9999999999998" as="targetPoint"/>
                        <Array as="points">
                            <mxPoint x="1328" y="1259.9999999999998"/>
                            <mxPoint x="1328" y="1304.9999999999998"/>
                        </Array>
                    </mxGeometry>
                </mxCell>
                <mxCell id="270" value="read only" style="edgeLabel;html=1;align=center;verticalAlign=middle;resizable=0;points=[];fontSize=10;fontColor=#FFFFFF;" parent="269" vertex="1" connectable="0">
                    <mxGeometry x="0.1217" y="1" relative="1" as="geometry">
                        <mxPoint as="offset"/>
                    </mxGeometry>
                </mxCell>
                <mxCell id="290" value="" style="edgeStyle=orthogonalEdgeStyle;html=1;endArrow=none;elbow=vertical;startArrow=block;startFill=1;strokeColor=#545B64;rounded=0;" parent="1" source="63" target="283" edge="1">
                    <mxGeometry width="100" relative="1" as="geometry">
                        <mxPoint x="354" y="721" as="sourcePoint"/>
                        <mxPoint x="460" y="640" as="targetPoint"/>
                        <Array as="points">
                            <mxPoint x="389" y="639"/>
                            <mxPoint x="467" y="639"/>
                        </Array>
                    </mxGeometry>
                </mxCell>
                <mxCell id="291" value="チャット永続化キュー" style="edgeLabel;html=1;align=center;verticalAlign=middle;resizable=0;points=[];" parent="290" vertex="1" connectable="0">
                    <mxGeometry x="0.0267" y="-1" relative="1" as="geometry">
                        <mxPoint x="-91" y="78" as="offset"/>
                    </mxGeometry>
                </mxCell>
                <mxCell id="292" value="" style="edgeStyle=orthogonalEdgeStyle;html=1;endArrow=none;elbow=vertical;startArrow=block;startFill=1;strokeColor=#545B64;rounded=0;" parent="1" source="67" target="283" edge="1">
                    <mxGeometry width="100" relative="1" as="geometry">
                        <mxPoint x="440" y="560" as="sourcePoint"/>
                        <mxPoint x="540" y="560" as="targetPoint"/>
                        <Array as="points">
                            <mxPoint x="549" y="639"/>
                            <mxPoint x="467" y="639"/>
                        </Array>
                    </mxGeometry>
                </mxCell>
                <mxCell id="335" value="&lt;span style=&quot;color: rgb(255, 255, 255); font-size: 10px;&quot;&gt;外部通知キュー&lt;/span&gt;" style="edgeLabel;html=1;align=center;verticalAlign=middle;resizable=0;points=[];" vertex="1" connectable="0" parent="292">
                    <mxGeometry x="-0.3494" y="1" relative="1" as="geometry">
                        <mxPoint as="offset"/>
                    </mxGeometry>
                </mxCell>
                <mxCell id="306" value="" style="edgeStyle=orthogonalEdgeStyle;html=1;endArrow=none;elbow=vertical;startArrow=none;endFill=1;strokeColor=#545B64;rounded=0;fontSize=10;fontColor=#FFFFFF;" parent="1" source="48" target="309" edge="1">
                    <mxGeometry width="100" relative="1" as="geometry">
                        <mxPoint x="583.5189002331001" y="300" as="sourcePoint"/>
                        <mxPoint x="880" y="794.9499999999998" as="targetPoint"/>
                        <Array as="points">
                            <mxPoint x="880" y="290"/>
                        </Array>
                    </mxGeometry>
                </mxCell>
                <mxCell id="309" value="VPC Peering" style="outlineConnect=0;dashed=0;verticalLabelPosition=bottom;verticalAlign=top;align=center;html=1;shape=mxgraph.aws3.vpc_peering;fillColor=#F58536;gradientColor=none;labelBackgroundColor=#1A1E05;strokeColor=#FFFFFF;fontSize=10;fontColor=#FFFFFF;" parent="1" vertex="1">
                    <mxGeometry x="865" y="866.9999999999999" width="29.23" height="32" as="geometry"/>
                </mxCell>
                <mxCell id="316" value="" style="edgeStyle=orthogonalEdgeStyle;html=1;endArrow=none;elbow=vertical;startArrow=block;startFill=1;strokeColor=#545B64;rounded=0;" parent="1" source="314" target="110" edge="1">
                    <mxGeometry width="100" relative="1" as="geometry">
                        <mxPoint x="1011" y="796" as="sourcePoint"/>
                        <mxPoint x="1111" y="796" as="targetPoint"/>
                        <Array as="points">
                            <mxPoint x="1352" y="412"/>
                            <mxPoint x="1432" y="412"/>
                        </Array>
                    </mxGeometry>
                </mxCell>
                <mxCell id="317" value="" style="edgeStyle=orthogonalEdgeStyle;html=1;endArrow=none;elbow=vertical;startArrow=block;startFill=1;strokeColor=#545B64;rounded=0;" parent="1" source="63" target="314" edge="1">
                    <mxGeometry width="100" relative="1" as="geometry">
                        <mxPoint x="394" y="717" as="sourcePoint"/>
                        <mxPoint x="1111" y="796" as="targetPoint"/>
                        <Array as="points">
                            <mxPoint x="439" y="809"/>
                            <mxPoint x="439" y="727"/>
                            <mxPoint x="1162" y="727"/>
                            <mxPoint x="1162" y="507"/>
                        </Array>
                    </mxGeometry>
                </mxCell>
                <mxCell id="319" value="チャット永続化キュー" style="edgeLabel;html=1;align=center;verticalAlign=middle;resizable=0;points=[];" parent="317" vertex="1" connectable="0">
                    <mxGeometry x="0.486" y="-1" relative="1" as="geometry">
                        <mxPoint x="-469" y="67" as="offset"/>
                    </mxGeometry>
                </mxCell>
                <mxCell id="91" value="Lambda" style="sketch=0;points=[[0,0,0],[0.25,0,0],[0.5,0,0],[0.75,0,0],[1,0,0],[0,1,0],[0.25,1,0],[0.5,1,0],[0.75,1,0],[1,1,0],[0,0.25,0],[0,0.5,0],[0,0.75,0],[1,0.25,0],[1,0.5,0],[1,0.75,0]];outlineConnect=0;fontColor=#232F3E;gradientColor=#F78E04;gradientDirection=north;fillColor=#D05C17;strokeColor=#ffffff;dashed=0;verticalLabelPosition=bottom;verticalAlign=top;align=center;html=1;fontSize=12;fontStyle=0;aspect=fixed;shape=mxgraph.aws4.resourceIcon;resIcon=mxgraph.aws4.lambda;" parent="1" vertex="1">
                    <mxGeometry x="1006" y="786.0000000000001" width="46" height="46" as="geometry"/>
                </mxCell>
                <mxCell id="320" value="" style="edgeStyle=orthogonalEdgeStyle;html=1;endArrow=block;elbow=vertical;startArrow=none;endFill=1;strokeColor=#545B64;rounded=0;entryX=0;entryY=0.5;entryDx=0;entryDy=0;entryPerimeter=0;" parent="1" source="67" target="91" edge="1">
                    <mxGeometry width="100" relative="1" as="geometry">
                        <mxPoint x="535" y="976" as="sourcePoint"/>
                        <mxPoint x="635" y="976" as="targetPoint"/>
                    </mxGeometry>
                </mxCell>
                <mxCell id="321" value="キュー追加を&lt;br&gt;トリガーに起動" style="edgeLabel;html=1;align=center;verticalAlign=middle;resizable=0;points=[];" parent="320" vertex="1" connectable="0">
                    <mxGeometry x="-0.5794" y="-1" relative="1" as="geometry">
                        <mxPoint as="offset"/>
                    </mxGeometry>
                </mxCell>
                <mxCell id="324" value="" style="edgeStyle=orthogonalEdgeStyle;html=1;endArrow=none;elbow=vertical;startArrow=none;endFill=1;strokeColor=#545B64;rounded=0;fontSize=10;fontColor=#050505;" parent="1" source="105" target="323" edge="1">
                    <mxGeometry width="100" relative="1" as="geometry">
                        <mxPoint x="1570.183663869464" y="287.6923076923076" as="sourcePoint"/>
                        <mxPoint x="1283.0769230769229" y="1245.0379037949324" as="targetPoint"/>
                        <Array as="points"/>
                    </mxGeometry>
                </mxCell>
                <mxCell id="343" value="&lt;span style=&quot;color: rgb(255, 255, 255); font-size: 10px;&quot;&gt;外部通知キュー&lt;/span&gt;" style="edgeLabel;html=1;align=center;verticalAlign=middle;resizable=0;points=[];" vertex="1" connectable="0" parent="324">
                    <mxGeometry x="0.4001" y="1" relative="1" as="geometry">
                        <mxPoint as="offset"/>
                    </mxGeometry>
                </mxCell>
                <mxCell id="323" value="VPC Peering" style="outlineConnect=0;dashed=0;verticalLabelPosition=bottom;verticalAlign=top;align=center;html=1;shape=mxgraph.aws3.vpc_peering;fillColor=#F58536;gradientColor=none;labelBackgroundColor=#1A1E05;strokeColor=#FFFFFF;fontSize=10;fontColor=#FFFFFF;" parent="1" vertex="1">
                    <mxGeometry x="1490" y="868.9999999999999" width="29.23" height="32" as="geometry"/>
                </mxCell>
                <mxCell id="328" value="&lt;font style=&quot;font-size: 16px;&quot;&gt;&lt;b&gt;## v1からの変更点&lt;br&gt;1. sharedVPC: 外部通知用のLambdaとVPCエンドポイントの削除&lt;br&gt;SQSをトリガーにLambda起動-&amp;gt;処理が可能であるためsharedVPC内の両リソースを削除し、SQSトリガーにLambda起動する形に変更&lt;br&gt;&lt;br&gt;2. sharedVPC: チャット永続化用のECSとVPCエンドポイントの削除&lt;br&gt;&lt;/b&gt;&lt;b&gt;SQSをトリガーにLambda起動-&amp;gt;処理が可能であるためsharedVPC内の両リソースを削除し、SQSトリガーにLambda起動する形に変更。Lambda-&amp;gt;Auroraへのアクセスが必要なため、LambdaはsharedVPC内に起動する&lt;br&gt;&lt;/b&gt;&lt;b&gt;&lt;br&gt;&lt;br&gt;&lt;/b&gt;&lt;/font&gt;" style="text;html=1;strokeColor=none;fillColor=none;align=left;verticalAlign=middle;whiteSpace=wrap;rounded=0;fontColor=#050505;" parent="1" vertex="1">
                    <mxGeometry x="28" y="1762" width="750" height="237" as="geometry"/>
                </mxCell>
                <mxCell id="331" value="" style="edgeStyle=orthogonalEdgeStyle;html=1;endArrow=none;elbow=vertical;startArrow=block;startFill=1;strokeColor=#545B64;rounded=0;fontSize=16;fontColor=#050505;" parent="1" source="330" target="63" edge="1">
                    <mxGeometry width="100" relative="1" as="geometry">
                        <mxPoint x="395" y="1188" as="sourcePoint"/>
                        <mxPoint x="495" y="1188" as="targetPoint"/>
                    </mxGeometry>
                </mxCell>
                <mxCell id="332" value="&lt;span style=&quot;color: rgb(240, 240, 240); font-size: 11px;&quot;&gt;トリガーに起動&lt;/span&gt;" style="edgeLabel;html=1;align=center;verticalAlign=middle;resizable=0;points=[];fontSize=16;fontColor=#050505;" parent="331" vertex="1" connectable="0">
                    <mxGeometry x="-0.1546" y="3" relative="1" as="geometry">
                        <mxPoint as="offset"/>
                    </mxGeometry>
                </mxCell>
                <mxCell id="333" value="" style="edgeStyle=orthogonalEdgeStyle;html=1;endArrow=block;elbow=vertical;startArrow=none;endFill=1;strokeColor=#545B64;rounded=0;fontSize=16;fontColor=#050505;" parent="1" source="330" target="237" edge="1">
                    <mxGeometry width="100" relative="1" as="geometry">
                        <mxPoint x="812" y="1398" as="sourcePoint"/>
                        <mxPoint x="912" y="1398" as="targetPoint"/>
                        <Array as="points">
                            <mxPoint x="386" y="1305"/>
                            <mxPoint x="1283" y="1305"/>
                        </Array>
                    </mxGeometry>
                </mxCell>
                <mxCell id="336" value="&lt;span style=&quot;color: rgb(255, 255, 255); font-size: 12px;&quot;&gt;チャット永続化&lt;/span&gt;" style="edgeLabel;html=1;align=center;verticalAlign=middle;resizable=0;points=[];" vertex="1" connectable="0" parent="333">
                    <mxGeometry x="-0.5278" y="-2" relative="1" as="geometry">
                        <mxPoint y="1" as="offset"/>
                    </mxGeometry>
                </mxCell>
            </root>
        </mxGraphModel>
    </diagram>
</mxfile>